<?xml version="1.0" standalone="no"?>
<!DOCTYPE svg PUBLIC "-//W3C//DTD SVG 20010904//EN"
 "http://www.w3.org/TR/2001/REC-SVG-20010904/DTD/svg10.dtd">
<svg version="1.0" xmlns="http://www.w3.org/2000/svg"
 width="1200.000000pt" height="720.000000pt" viewBox="0 0 1200.000000 720.000000"
 preserveAspectRatio="xMidYMid meet">
<metadata>
Created by potrace 1.16, written by Peter Selinger 2001-2019
</metadata>
<g transform="translate(0.000000,720.000000) scale(0.100000,-0.100000)"
fill="#000000" stroke="none">
<path d="M0 3600 l0 -3600 6000 0 6000 0 0 3600 0 3600 -6000 0 -6000 0 0
-3600z m4960 440 l0 -1180 -185 0 -185 0 0 1009 c0 860 -2 1010 -14 1014 -8 3
-52 11 -98 17 -45 7 -121 19 -168 27 -47 8 -128 21 -180 29 -52 9 -162 27
-245 42 -82 14 -159 25 -169 24 -11 0 -89 12 -174 28 -84 17 -166 30 -180 30
-28 0 -213 29 -512 83 -96 17 -185 30 -197 29 -14 -1 -23 4 -23 13 0 13 140
15 1165 15 l1165 0 0 -1180z m480 905 c0 -175 4 -283 11 -298 6 -13 29 -36 52
-50 70 -46 140 -31 194 40 l28 36 3 274 3 273 60 0 59 0 0 -266 c0 -323 -6
-351 -84 -428 -57 -57 -105 -76 -189 -76 -111 0 -194 53 -243 155 -23 49 -24
56 -24 333 l0 282 65 0 65 0 0 -275z m1284 189 c15 -16 26 -38 26 -54 0 -39
-44 -80 -85 -80 -44 0 -90 51 -80 88 18 74 87 97 139 46z m2536 -99 l0 -95 50
0 50 0 0 -35 0 -35 -50 0 -50 0 0 -210 0 -210 -30 0 -30 0 0 210 0 210 -45 0
c-45 0 -45 0 -45 35 0 35 0 35 45 35 l45 0 0 95 0 95 30 0 30 0 0 -95z m-2929
-68 c33 -18 51 -37 71 -76 28 -53 28 -55 28 -247 l0 -194 -60 0 -60 0 0 164
c0 215 -12 246 -95 246 -69 0 -74 -15 -77 -227 l-3 -178 -62 -3 -63 -3 0 256
0 256 68 -2 c47 -1 77 3 97 14 43 23 104 21 156 -6z m1543 -13 c37 -18 86 -58
86 -70 0 -3 -72 -77 -160 -165 -88 -88 -160 -163 -160 -168 0 -4 18 -16 40
-26 59 -27 126 -17 189 28 45 33 53 35 81 26 26 -10 43 -39 23 -39 -5 0 -24
-15 -44 -34 -66 -63 -177 -83 -274 -49 -65 23 -140 98 -156 156 -15 54 -15
140 0 194 15 53 91 132 151 155 58 23 169 18 224 -8z m1962 11 c19 -8 37 -14
39 -15 13 -1 65 -55 65 -67 0 -7 -70 -82 -155 -168 -101 -101 -153 -160 -149
-169 3 -8 19 -19 36 -25 71 -25 161 -4 205 47 20 23 24 24 52 12 19 -8 31 -20
31 -31 0 -11 -3 -19 -7 -19 -5 0 -21 -13 -38 -28 -94 -87 -270 -79 -367 16
-133 130 -84 376 87 442 60 23 152 26 201 5z m-3108 -257 l-3 -253 -57 -3 -58
-3 0 256 0 255 60 0 60 0 -2 -252z m285 194 c69 -141 86 -178 92 -199 12 -43
19 -33 90 122 62 137 55 130 129 133 43 2 66 -1 66 -8 0 -10 -52 -127 -81
-182 -4 -9 -29 -59 -54 -110 -104 -212 -98 -203 -134 -203 -37 0 -32 -7 -113
165 -30 63 -78 163 -106 221 -29 58 -52 109 -52 112 0 4 30 7 68 7 l67 0 28
-58z m1305 11 c-2 -29 -8 -39 -23 -41 -11 -2 -37 -20 -57 -39 -47 -46 -58 -94
-58 -258 l0 -125 -35 0 -35 0 2 243 3 242 33 3 c30 3 32 1 32 -29 l0 -33 33
31 c35 33 50 41 85 42 21 1 23 -3 20 -36z m348 23 c7 -8 19 -16 24 -18 6 -2
14 -22 17 -45 5 -35 2 -43 -16 -52 -25 -14 -41 -7 -41 18 0 10 -11 26 -25 35
-43 28 -97 -13 -81 -61 6 -17 93 -81 108 -79 12 2 60 -58 74 -91 20 -47 17
-85 -9 -124 -48 -71 -118 -95 -190 -65 -77 32 -119 136 -60 150 27 7 43 -5 43
-35 0 -24 46 -61 75 -61 40 0 79 43 79 87 0 28 -7 41 -34 65 -19 16 -40 29
-46 30 -6 0 -32 19 -58 43 -42 39 -46 48 -46 89 0 49 22 102 48 118 26 15 121
12 138 -4z m-6228 -10 c16 -8 59 -24 96 -37 38 -12 81 -28 95 -35 14 -8 34
-14 43 -14 9 0 46 -13 81 -30 36 -16 70 -30 76 -30 6 0 39 -12 74 -26 34 -14
69 -27 77 -29 8 -2 44 -14 80 -27 36 -14 81 -30 100 -37 19 -7 76 -28 125 -46
50 -18 106 -39 125 -46 100 -36 146 -54 155 -61 5 -4 16 -8 25 -8 8 0 42 -12
75 -26 33 -14 67 -26 75 -27 8 -1 48 -15 88 -31 l72 -29 0 -1120 0 -1119 -30
5 c-16 4 -50 16 -74 27 -25 11 -52 20 -61 20 -9 0 -32 8 -53 19 -20 10 -63 26
-94 36 l-58 18 0 912 0 913 -51 33 c-29 18 -60 42 -70 53 -11 11 -19 16 -19
12 0 -4 -7 0 -16 9 -9 9 -41 33 -72 53 -89 59 -98 66 -116 85 -10 9 -24 17
-32 17 -8 0 -14 4 -14 9 0 5 -27 26 -60 47 -33 22 -60 42 -60 47 0 4 -6 7 -14
7 -8 0 -16 4 -18 9 -1 4 -41 34 -88 66 -47 32 -89 63 -95 70 -8 9 -72 55 -190
135 -28 19 -139 100 -187 137 -56 43 -49 70 10 39z m6522 -231 l0 -245 -35 0
-35 0 0 245 0 245 35 0 35 0 0 -245z m-6768 180 c32 -25 62 -45 67 -45 6 0 14
-6 18 -13 4 -7 42 -37 83 -66 41 -30 83 -62 93 -72 10 -11 24 -19 32 -19 8 0
15 -4 15 -9 0 -6 31 -31 70 -57 38 -25 80 -56 92 -69 13 -12 61 -48 108 -80
47 -32 100 -72 118 -89 17 -16 32 -27 32 -23 0 4 12 -4 28 -18 15 -14 46 -38
69 -53 24 -15 45 -33 48 -41 6 -16 16 -23 -155 104 -67 50 -160 118 -206 152
-47 34 -97 71 -112 83 -15 11 -58 44 -97 72 -38 29 -76 58 -83 65 -7 7 -17 13
-21 13 -4 0 -16 8 -27 18 -10 9 -53 42 -94 71 -41 30 -77 57 -80 61 -3 3 -22
16 -42 29 -21 12 -38 25 -38 27 0 14 33 -2 82 -41z m2226 -101 l22 -6 0 -1144
c0 -753 -3 -1144 -10 -1144 -6 0 -11 391 -12 1138 l-3 1137 -22 3 c-13 2 -23
8 -23 13 0 10 15 11 48 3z m-1303 -584 c10 -11 24 -20 31 -20 7 0 14 -4 16 -9
3 -9 136 -111 144 -111 3 0 23 -15 44 -32 l40 -33 -3 -1080 -2 -1080 -5 1076
-5 1077 -60 46 c-75 57 -79 60 -164 121 -65 47 -83 65 -63 65 5 0 17 -9 27
-20z m133 -357 c-30 -32 -86 -92 -125 -133 -38 -41 -102 -109 -140 -150 -39
-41 -85 -91 -103 -110 -18 -19 -62 -66 -98 -104 l-66 -68 -18 23 c-10 13 -22
29 -26 34 -59 75 -202 266 -202 270 0 4 5 3 12 -1 6 -4 39 -6 73 -5 56 2 63 0
78 -22 8 -13 22 -30 29 -38 7 -8 25 -28 40 -46 l26 -32 39 29 c21 16 43 34 49
39 6 5 51 40 100 77 49 38 98 77 109 86 76 64 262 207 269 207 5 1 -15 -25
-46 -56z m2810 -7 c-241 -65 -270 -386 -45 -502 51 -27 155 -30 208 -7 85 38
135 95 164 187 9 29 13 34 14 18 2 -39 -48 -129 -93 -169 -25 -22 -63 -43 -90
-51 -195 -52 -360 61 -374 256 -4 55 -1 70 27 127 42 84 126 151 192 153 l44
1 -47 -13z m1234 5 c13 -5 45 -28 72 -52 200 -176 69 -506 -192 -486 -74 5
-101 13 -123 33 -18 16 -19 16 -19 -4 0 -20 -5 -22 -62 -20 l-63 1 55 6 c47 5
55 9 58 29 4 27 3 27 47 -2 41 -28 105 -41 165 -32 115 16 220 140 220 261 0
122 -90 233 -215 265 l-30 8 32 1 c17 1 42 -3 55 -8z m1258 -1 c0 -5 -19 -10
-41 -10 -41 0 -109 -32 -109 -51 0 -5 -5 -9 -11 -9 -6 0 -9 7 -5 15 4 12 -4
15 -44 15 l-50 0 0 -241 0 -240 46 3 46 3 -1 171 c-2 158 0 172 19 196 27 36
81 53 112 37 29 -14 68 -50 68 -61 0 -18 -21 -7 -29 15 -5 13 -15 24 -23 25
-7 1 -24 4 -38 7 -16 4 -37 -2 -57 -14 l-33 -21 0 -185 0 -185 -60 0 -60 0 0
256 0 255 68 -2 c45 -1 77 4 97 15 33 18 105 22 105 6z m61 -22 c16 -12 42
-43 57 -68 27 -44 27 -48 30 -242 l4 -198 -66 0 -66 0 2 173 2 172 6 -165 5
-165 48 -3 47 -3 0 177 c0 100 -5 193 -11 214 -13 43 -55 94 -87 104 -12 4
-22 12 -22 17 0 15 19 10 51 -13z m-5936 -528 c15 -22 26 -42 24 -43 -8 -6
-134 -112 -139 -117 -21 -24 -165 -140 -174 -140 -13 0 29 39 155 142 55 45
99 85 99 89 0 5 6 9 14 9 31 0 35 25 8 52 l-27 26 -115 -135 c-63 -75 -130
-151 -149 -170 -19 -18 -31 -36 -28 -39 4 -4 9 1 13 10 3 9 11 16 16 16 5 0 8
-4 6 -8 -4 -12 -158 -145 -158 -137 0 4 110 134 222 260 14 17 40 46 57 65 17
19 55 63 84 97 28 35 55 63 58 63 4 0 19 -18 34 -40z m2920 -374 c19 -8 35
-13 35 -10 0 3 18 -8 39 -25 53 -42 101 -119 101 -162 -1 -32 -2 -31 -19 20
-24 68 -46 97 -104 137 -54 37 -108 47 -237 42 l-85 -3 -3 -372 -2 -373 50 0
50 0 0 121 0 120 63 -2 c34 -1 80 3 102 9 75 21 155 108 174 190 l9 37 1 -33
c1 -42 -21 -86 -68 -135 -48 -50 -111 -78 -193 -84 l-67 -6 -3 -116 -3 -116
-62 -3 -63 -3 0 391 0 390 125 0 c87 0 136 -4 160 -14z m2340 -26 c10 -22 24
-45 32 -51 7 -6 13 -20 13 -30 0 -11 4 -19 9 -19 4 0 22 -26 40 -57 17 -32 47
-85 66 -118 19 -33 49 -87 67 -120 l33 -59 3 247 2 247 60 0 60 0 0 -390 0
-390 -50 0 c-46 0 -51 3 -75 37 -14 21 -25 41 -25 46 0 4 -12 25 -26 47 -14
22 -34 53 -43 69 -56 101 -85 152 -112 196 -16 28 -37 65 -45 83 -8 17 -15 32
-17 32 -1 0 -2 -114 -2 -252 l0 -253 -62 -3 -63 -3 0 391 0 390 58 0 59 0 18
-40z m1985 -350 l0 -390 -59 0 c-58 0 -59 0 -63 30 -3 17 -1 33 4 36 4 3 8 -6
8 -20 0 -24 3 -26 50 -26 l50 0 0 376 0 375 -47 -3 -48 -3 -5 -149 c-4 -131
-7 -147 -19 -132 -23 28 -68 47 -134 56 l-62 9 74 -4 c55 -3 82 -10 103 -25
l28 -21 0 141 0 140 60 0 60 0 0 -390z m-3003 305 c46 -32 37 -116 -14 -136
-68 -26 -133 24 -118 92 11 50 87 76 132 44z m1872 -159 c54 -13 116 -71 154
-142 28 -54 34 -84 17 -84 -5 0 -10 6 -10 13 0 67 -70 154 -157 194 -127 59
-287 -5 -347 -137 -25 -57 -26 -171 -2 -218 37 -71 102 -125 186 -153 19 -7
15 -8 -18 -5 -100 10 -202 144 -202 266 0 56 30 143 63 181 34 39 92 79 123
85 16 3 31 8 34 11 6 6 123 -2 159 -11z m-6057 -408 c334 -221 615 -408 625
-414 10 -7 15 -14 12 -18 -3 -3 -36 14 -72 39 -37 25 -72 45 -77 45 -6 0 -10
4 -10 8 0 4 -25 23 -55 41 -30 18 -64 42 -76 52 -12 10 -28 19 -36 19 -7 0
-13 4 -13 8 0 5 -18 18 -40 31 -22 12 -53 34 -70 48 -16 13 -30 21 -30 16 0
-4 -4 -3 -8 3 -4 6 -34 29 -67 50 -33 21 -66 44 -73 51 -7 7 -20 13 -28 13 -8
0 -14 4 -14 8 0 5 -18 18 -40 31 -22 12 -53 34 -70 48 -16 13 -30 21 -30 16 0
-4 -4 -3 -8 3 -9 13 -162 114 -173 114 -4 0 -9 4 -11 8 -3 8 -52 42 -187 130
-36 23 -68 47 -70 54 -2 6 0 8 5 5 5 -3 282 -187 616 -409z m3988 332 l0 -70
-28 2 c-28 2 -65 -22 -85 -57 -7 -12 -14 -86 -17 -175 l-5 -155 -60 0 -60 0
-3 253 c-1 166 1 252 8 252 6 0 10 -86 10 -245 l0 -245 45 0 45 0 0 123 c0 67
5 139 10 159 13 46 63 97 101 105 27 5 29 9 29 54 0 57 -9 60 -73 28 -36 -19
-40 -19 -27 -4 17 20 66 44 93 45 15 0 17 -10 17 -70z m560 55 c58 -30 96
-113 53 -116 -29 -2 -56 -7 -80 -15 -14 -4 -23 -2 -23 5 0 6 -7 11 -15 11 -29
0 -14 -29 34 -64 27 -20 53 -36 57 -36 5 0 21 -18 37 -39 22 -32 27 -50 27
-98 0 -62 -11 -86 -62 -135 -19 -19 -38 -28 -60 -28 l-33 1 38 13 c47 17 71
38 91 81 38 79 10 154 -79 213 -73 48 -87 61 -83 79 5 28 35 40 54 22 13 -14
21 -14 50 -4 43 15 47 19 39 45 -10 30 -63 60 -108 60 -74 0 -129 -50 -131
-119 -1 -56 20 -93 71 -125 72 -46 103 -76 103 -99 0 -18 -3 -17 -16 9 -9 18
-33 41 -57 53 -86 45 -117 85 -117 151 0 57 31 108 85 138 28 16 91 15 125 -3z"/>
<path d="M7708 4906 c-21 -6 -46 -18 -56 -27 -10 -8 -25 -18 -34 -21 -22 -9
-68 -106 -68 -145 0 -34 24 -103 35 -103 4 0 67 61 141 135 l134 134 -28 15
c-40 21 -82 25 -124 12z"/>
<path d="M9692 4905 c-119 -36 -182 -160 -137 -269 l16 -37 72 72 c40 39 102
102 139 139 l68 68 -33 15 c-48 23 -77 26 -125 12z"/>
<path d="M3109 3733 c-9 -10 -58 -49 -109 -88 -51 -38 -100 -78 -109 -87 -8
-10 -21 -18 -28 -18 -6 0 -16 -6 -20 -13 -14 -23 -100 -87 -116 -87 -8 0 -38
32 -67 70 l-52 70 -54 0 c-43 0 -53 -3 -47 -13 8 -13 88 -120 108 -144 6 -7
19 -24 30 -39 11 -15 34 -41 50 -60 l30 -33 165 180 c91 98 184 199 208 225
23 25 42 47 42 50 0 10 -17 3 -31 -13z"/>
<path d="M7817 2904 c-4 -4 -7 -173 -7 -376 l0 -368 50 0 50 0 2 268 3 267 34
-60 c19 -33 42 -73 51 -90 10 -16 42 -73 72 -125 30 -52 77 -132 104 -177 l48
-83 43 0 43 0 0 376 0 375 -47 -3 -48 -3 -5 -261 -5 -262 -61 107 c-33 58 -87
151 -119 206 -32 55 -73 125 -90 155 -28 51 -34 55 -71 58 -22 2 -43 0 -47 -4z"/>
</g>
</svg>
